<?xml version="1.0" encoding="UTF-8"?>
<!--Generator: Apple Native CoreSVG 232.5-->
<!DOCTYPE svg
PUBLIC "-//W3C//DTD SVG 1.1//EN"
       "http://www.w3.org/Graphics/SVG/1.1/DTD/svg11.dtd">
<svg version="1.1" xmlns="http://www.w3.org/2000/svg" xmlns:xlink="http://www.w3.org/1999/xlink" width="164.575" height="202.515">
 <g>
  <rect height="202.515" opacity="0" width="164.575" x="0" y="0"/>
  <path d="M36.0352 63.7207C36.0352 75.3662 44.2383 83.8623 59.9854 88.3301L108.472 102.319C130.151 108.472 141.504 121.216 141.504 139.38L141.504 143.042L128.467 143.042L128.467 139.38C128.467 127.661 120.337 119.238 104.517 114.697L56.1035 100.708C34.3506 94.5557 23.0713 81.8115 23.0713 63.7207L23.0713 59.7656L36.0352 59.7656Z" fill="#000" fill-opacity="0.85"/>
  <path d="M55.7373 4.1748C52.5146 0.952148 47.9736 0.292969 42.2607 0.292969L17.1387 0.292969C11.499 0.292969 7.03125 0.952148 3.73535 4.1748C0.512695 7.39746 0 11.792 0 17.4316L0 42.4805C0 48.3398 0.512695 52.8076 3.73535 55.957C7.03125 59.1797 11.499 59.7656 17.2852 59.7656L42.2607 59.7656C47.9736 59.7656 52.5146 59.1797 55.7373 55.957C58.8867 52.8076 59.4727 48.3398 59.4727 42.4805L59.4727 17.5781C59.4727 11.792 58.8867 7.32422 55.7373 4.1748ZM160.913 146.924C157.617 143.701 153.149 143.042 147.363 143.042L122.241 143.042C116.675 143.042 112.134 143.701 108.911 146.924C105.688 150.146 105.176 154.541 105.176 160.181L105.176 185.303C105.176 191.089 105.688 195.557 108.911 198.706C112.134 201.929 116.602 202.515 122.388 202.515L147.363 202.515C153.149 202.515 157.617 201.929 160.913 198.706C164.062 195.557 164.575 191.089 164.575 185.303L164.575 160.327C164.575 154.541 164.062 150.146 160.913 146.924Z" fill="#000" fill-opacity="0.85"/>
 </g>
</svg>
