<?xml version="1.0" encoding="UTF-8"?>
<!--Generator: Apple Native CoreSVG 232.5-->
<!DOCTYPE svg
PUBLIC "-//W3C//DTD SVG 1.1//EN"
       "http://www.w3.org/Graphics/SVG/1.1/DTD/svg11.dtd">
<svg version="1.1" xmlns="http://www.w3.org/2000/svg" xmlns:xlink="http://www.w3.org/1999/xlink" width="166.644" height="220.525">
 <g>
  <rect height="220.525" opacity="0" width="166.644" x="0" y="0"/>
  <path d="M166.644 81.4425L166.644 138.962C166.644 189.215 134.214 220.404 83.3011 220.404C32.4297 220.404 0 189.215 0 138.962L0 81.4425C0 31.1896 32.4297 0 83.3011 0C134.214 0 166.644 31.1896 166.644 81.4425ZM77.5357 71.2234L77.5357 127.576L77.9392 137.856L67.3128 125.826L55.8049 114.374C54.7751 113.336 53.3845 112.615 51.7022 112.615C48.5665 112.615 46.1993 114.958 46.1993 118.206C46.1993 119.728 46.807 121.131 47.9965 122.371L79.0562 153.449C80.1513 154.575 81.7474 155.233 83.3093 155.233C84.8818 155.233 86.4673 154.575 87.5624 153.449L118.652 122.371C119.841 121.131 120.438 119.728 120.438 118.206C120.438 114.958 118.071 112.615 114.946 112.615C113.253 112.615 111.862 113.336 110.843 114.374L99.3058 125.826L88.6845 137.824L89.0935 127.576L89.0935 71.2234C89.0935 67.6966 86.7333 65.2918 83.3093 65.2918C79.8853 65.2918 77.5357 67.6966 77.5357 71.2234Z" fill="#ffffff" fill-opacity="0.85"/>
 </g>
</svg>
