<?xml version="1.0" encoding="UTF-8"?>
<!--Generator: Apple Native CoreSVG 232.5-->
<!DOCTYPE svg
PUBLIC "-//W3C//DTD SVG 1.1//EN"
       "http://www.w3.org/Graphics/SVG/1.1/DTD/svg11.dtd">
<svg version="1.1" xmlns="http://www.w3.org/2000/svg" xmlns:xlink="http://www.w3.org/1999/xlink" width="138.647" height="138.794">
 <g>
  <rect height="138.794" opacity="0" width="138.647" x="0" y="0"/>
  <path d="M138.647 34.9365C138.647 30.6152 135.278 27.3926 131.323 27.3926C127.368 27.3926 124.146 30.835 124.146 34.6436L124.146 76.3184L125.537 117.114L110.156 100.122L12.4512 2.41699C10.9863 0.952148 9.22852 0.292969 7.4707 0.292969C3.44238 0.292969 0 3.88184 0 7.69043C0 9.44824 0.732422 11.2793 2.19727 12.7441L99.8291 110.449L116.821 125.757L72.3633 124.512L34.3506 124.512C30.542 124.512 27.0996 127.661 27.0996 131.543C27.0996 135.352 30.1758 138.794 34.6436 138.794L130.811 138.794C135.498 138.794 138.501 135.645 138.501 131.03Z" fill="#ffffff" fill-opacity="0.85"/>
 </g>
</svg>
