<svg width="796" height="744" viewBox="0 0 796 744" fill="none" xmlns="http://www.w3.org/2000/svg">
<g filter="url(#filter0_f_42_199)">
<path fill-rule="evenodd" clip-rule="evenodd" d="M562.602 165.26C617.549 203.521 656.387 275.981 643.12 348.412C630.466 417.499 555.337 450.102 502.038 495.911C457.008 534.613 416.774 582.447 361.278 590.647C300.082 599.69 236.913 585 196.044 541.126C154.908 496.966 147.081 429.82 150.859 364.757C154.647 299.52 165.94 225.965 216.786 183.911C265.184 143.881 327.8 172.955 386.593 169.785C447.677 166.49 513.868 131.325 562.602 165.26Z" fill="url(#paint0_linear_42_199)"/>
</g>
<defs>
<filter id="filter0_f_42_199" x="0.0135498" y="0.601425" width="795.72" height="742.593" filterUnits="userSpaceOnUse" color-interpolation-filters="sRGB">
<feFlood flood-opacity="0" result="BackgroundImageFix"/>
<feBlend mode="normal" in="SourceGraphic" in2="BackgroundImageFix" result="shape"/>
<feGaussianBlur stdDeviation="75" result="effect1_foregroundBlur_42_199"/>
</filter>
<linearGradient id="paint0_linear_42_199" x1="555.59" y1="150.735" x2="165.328" y2="507.539" gradientUnits="userSpaceOnUse">
<stop stop-color="#655FAA"/>
<stop offset="1" stop-color="#9CE4F4"/>
</linearGradient>
</defs>
</svg>
