<?xml version="1.0" encoding="UTF-8"?>
<!--Generator: Apple Native CoreSVG 232.5-->
<!DOCTYPE svg
PUBLIC "-//W3C//DTD SVG 1.1//EN"
       "http://www.w3.org/Graphics/SVG/1.1/DTD/svg11.dtd">
<svg version="1.1" xmlns="http://www.w3.org/2000/svg" xmlns:xlink="http://www.w3.org/1999/xlink" width="157.251" height="201.929">
 <g>
  <rect height="201.929" opacity="0" width="157.251" x="0" y="0"/>
  <path d="M28.1982 201.929L129.053 201.929C147.803 201.929 157.251 192.261 157.251 173.438L157.251 85.7666C157.251 74.8535 155.933 70.0928 149.121 63.208L94.8486 8.20312C88.4033 1.53809 83.1299 0.0732422 73.3887 0.0732422L28.1982 0.0732422C9.59473 0.0732422 0 9.66797 0 28.5645L0 173.438C0 192.334 9.44824 201.929 28.1982 201.929ZM28.8574 188.965C18.3838 188.965 12.9639 183.398 12.9639 173.145L12.9639 28.8574C12.9639 18.8232 18.3838 13.0371 28.9307 13.0371L72.29 13.0371L72.29 69.1406C72.29 80.3467 77.9297 85.7666 88.916 85.7666L144.287 85.7666L144.287 173.145C144.287 183.398 138.867 188.965 128.32 188.965ZM90.3076 73.5352C86.2061 73.5352 84.5215 71.9238 84.5215 67.749L84.5215 15.6006L141.724 73.5352Z" fill="#000"/>
  <path d="M114.478 114.331L41.2354 114.331C38.2324 114.331 36.0352 116.528 36.0352 119.312C36.0352 122.168 38.2324 124.438 41.2354 124.438L114.478 124.438C117.407 124.438 119.604 122.168 119.604 119.312C119.604 116.528 117.407 114.331 114.478 114.331ZM114.478 147.363L41.2354 147.363C38.2324 147.363 36.0352 149.634 36.0352 152.563C36.0352 155.347 38.2324 157.544 41.2354 157.544L114.478 157.544C117.407 157.544 119.604 155.347 119.604 152.563C119.604 149.634 117.407 147.363 114.478 147.363Z" fill="#000"/>
 </g>
</svg>
