<?xml version="1.0" encoding="UTF-8"?>
<!--Generator: Apple Native CoreSVG 232.5-->
<!DOCTYPE svg
PUBLIC "-//W3C//DTD SVG 1.1//EN"
       "http://www.w3.org/Graphics/SVG/1.1/DTD/svg11.dtd">
<svg version="1.1" xmlns="http://www.w3.org/2000/svg" xmlns:xlink="http://www.w3.org/1999/xlink" width="355.664" height="193.579">
 <g>
  <rect height="193.579" opacity="0" width="355.664" x="0" y="0"/>
  <path d="M111.178 124.031C95.7548 137.428 87.085 154.517 87.085 169.775C87.085 174.229 88.2302 178.391 90.4303 181.934L15.7471 181.934C4.61426 181.934 0 177.539 0 169.043C0 142.749 26.5137 111.621 68.9941 111.621C85.7839 111.621 100.08 116.484 111.178 124.031ZM101.733 60.9375C101.733 81.3721 86.792 97.1191 69.0674 97.1191C51.3428 97.1191 36.4014 81.3721 36.4014 61.084C36.4014 41.2354 51.4893 25.708 69.0674 25.708C86.6455 25.708 101.733 40.9424 101.733 60.9375Z" fill="#000000" fill-opacity="0.85"/>
  <path d="M355.664 169.043C355.664 177.539 351.05 181.934 339.99 181.934L265.583 181.934C267.792 178.391 268.945 174.229 268.945 169.775C268.945 154.464 260.215 137.31 244.691 123.889C255.762 116.423 269.984 111.621 286.67 111.621C329.15 111.621 355.664 142.749 355.664 169.043ZM319.409 60.9375C319.409 81.3721 304.541 97.1191 286.816 97.1191C269.092 97.1191 254.077 81.3721 254.077 61.084C254.077 41.2354 269.165 25.708 286.816 25.708C304.395 25.708 319.409 40.9424 319.409 60.9375Z" fill="#000000" fill-opacity="0.85"/>
  <path d="M178.052 94.9951C198.486 94.9951 215.625 76.9043 215.625 53.3936C215.625 30.4688 198.34 12.9639 178.052 12.9639C157.837 12.9639 140.552 30.7617 140.552 53.54C140.552 76.9043 157.69 94.9951 178.052 94.9951ZM114.185 181.934L241.846 181.934C251.367 181.934 257.227 177.319 257.227 169.775C257.227 145.459 226.831 111.914 177.979 111.914C129.126 111.914 98.7305 145.459 98.7305 169.775C98.7305 177.319 104.59 181.934 114.185 181.934Z" fill="#000000" fill-opacity="0.85"/>
 </g>
</svg>
