<svg width="180" height="42" viewBox="0 0 180 42" fill="none" xmlns="http://www.w3.org/2000/svg">
<path d="M84.1764 29.2365C84.5832 28.8629 84.6101 28.2303 84.2365 27.8236C83.8629 27.4168 83.2303 27.3899 82.8236 27.7635L84.1764 29.2365ZM5.38615 0.579184C4.87672 0.365876 4.29082 0.605929 4.07751 1.11536L0.601459 9.41699C0.388151 9.92642 0.628205 10.5123 1.13763 10.7256C1.64706 10.9389 2.23296 10.6989 2.44627 10.1894L5.53609 2.81022L12.9153 5.90004C13.4247 6.11335 14.0106 5.8733 14.2239 5.36387C14.4373 4.85444 14.1972 4.26855 13.6878 4.05524L5.38615 0.579184ZM10.2018 11.5601L5.92526 1.12245L4.07457 1.88072L8.35109 12.3183L10.2018 11.5601ZM82.8236 27.7635C59.5757 49.1143 22.1689 40.7681 10.2018 11.5601L8.35109 12.3183C20.8462 42.8148 59.903 51.5292 84.1764 29.2365L82.8236 27.7635Z" fill="url(#paint0_angular_0_1)"/>
<path d="M94.21 21.535L98.71 21.25C98.84 21.25 98.965 21.375 99.085 21.625C99.085 22.005 98.645 22.195 97.765 22.195L95.14 22.345L95.08 22.375C95.33 24.005 95.455 27.1 95.455 31.66C95.405 32.1 95.245 32.32 94.975 32.32C94.715 32.32 94.565 32.12 94.525 31.72V28.24C94.525 25.92 94.42 23.985 94.21 22.435C92.42 22.605 91.525 22.805 91.525 23.035L91.39 23.095C91.08 23.005 90.925 22.845 90.925 22.615C90.925 22.065 92.02 21.705 94.21 21.535ZM100.462 25.21C100.902 25.21 101.122 25.385 101.122 25.735L100.987 26.02L100.897 28.765C100.897 30.005 101.147 30.775 101.647 31.075L101.677 31.3C101.647 31.59 101.512 31.735 101.272 31.735H101.182C100.432 31.225 100.057 30.445 100.057 29.395H99.9521C99.5521 30.515 99.0671 31.075 98.4971 31.075C97.9671 30.925 97.7021 30.53 97.7021 29.89C97.7021 28.48 98.2671 27.075 99.3971 25.675C99.7771 25.365 100.132 25.21 100.462 25.21ZM98.6471 29.29L98.5871 29.71V29.995H98.7371C99.4871 28.125 99.8621 26.985 99.8621 26.575H99.8021C99.2221 27.225 98.8371 28.13 98.6471 29.29ZM103.882 26.545C104.942 26.545 105.567 27.21 105.757 28.54C105.757 29.72 105.207 30.565 104.107 31.075C103.987 31.135 103.822 31.165 103.612 31.165H103.507L103.177 31.135V31.165L103.237 35.17C103.167 35.48 103.007 35.635 102.757 35.635C102.477 35.545 102.337 35.4 102.337 35.2L102.202 27.04C102.202 26.78 102.357 26.645 102.667 26.635L102.982 26.77C103.262 26.62 103.562 26.545 103.882 26.545ZM103.132 28.135L103.087 28.6L103.132 30.19L103.552 30.295C104.222 30.295 104.657 29.805 104.857 28.825V28.6C104.787 27.81 104.507 27.415 104.017 27.415H103.792C103.352 27.415 103.132 27.655 103.132 28.135ZM112.295 23.185C112.675 23.265 112.865 23.435 112.865 23.695C112.765 23.975 112.605 24.115 112.385 24.115C112.015 24.045 111.83 23.86 111.83 23.56C111.93 23.31 112.085 23.185 112.295 23.185ZM112.865 25.285C113.025 25.285 113.16 25.43 113.27 25.72L113.135 26.785V27.49C113.135 28.31 113.275 29.385 113.555 30.715C113.455 30.905 113.285 31 113.045 31C112.635 31 112.365 29.8 112.235 27.4V26.875C112.235 25.815 112.445 25.285 112.865 25.285ZM115.857 25.915L116.472 25.825C116.722 25.825 116.862 25.98 116.892 26.29C116.892 26.56 116.567 26.735 115.917 26.815C115.507 27.135 115.302 27.545 115.302 28.045V28.54C115.502 29.64 115.842 30.19 116.322 30.19H116.472C116.752 30.19 117.172 29.925 117.732 29.395H117.822C118.022 29.395 118.182 29.535 118.302 29.815C118.162 30.245 117.712 30.635 116.952 30.985C116.812 31.045 116.637 31.075 116.427 31.075C115.397 31.075 114.727 30.265 114.417 28.645V28.315C114.417 27.145 114.897 26.345 115.857 25.915ZM121.458 25.345C122.198 25.345 122.758 25.895 123.138 26.995L123.198 27.31C123.198 28.38 122.698 29.475 121.698 30.595C121.298 30.965 120.893 31.15 120.483 31.15C119.883 31.15 119.458 30.805 119.208 30.115C119.118 29.795 119.073 29.515 119.073 29.275V29.095C119.073 27.515 119.648 26.315 120.798 25.495C120.998 25.395 121.218 25.345 121.458 25.345ZM119.958 29.245C119.958 29.925 120.133 30.265 120.483 30.265C121.213 30.265 121.818 29.33 122.298 27.46V27.175C122.128 26.555 121.813 26.245 121.353 26.245C121.173 26.245 121.083 26.37 121.083 26.62C121.083 26.79 120.883 26.925 120.483 27.025C120.133 27.615 119.958 28.355 119.958 29.245ZM125.813 25.945C126.663 26.015 127.088 26.43 127.088 27.19L127.118 27.385L127.088 29.725C127.088 29.995 127.243 30.36 127.553 30.82V30.85C127.473 31.14 127.328 31.285 127.118 31.285C126.498 31.025 126.188 30.475 126.188 29.635V29.44L126.143 29.41L126.188 29.35V29.32L126.233 27.25C126.233 26.96 126.108 26.815 125.858 26.815H125.678C125.178 27.015 124.928 28.11 124.928 30.1C124.928 30.79 124.753 31.135 124.403 31.135C124.133 31.135 123.993 30.965 123.983 30.625V29.125C123.983 27.185 124.153 26.215 124.493 26.215L124.643 26.17L124.958 26.215C125.228 26.035 125.513 25.945 125.813 25.945ZM135.448 21.895C135.728 21.955 135.868 22.095 135.868 22.315L135.778 22.975V23.17C135.778 23.61 135.828 24.075 135.928 24.565H135.958C137.118 24.215 137.838 24.04 138.118 24.04C138.408 24.12 138.553 24.265 138.553 24.475C138.553 24.815 138.208 24.985 137.518 24.985L135.958 25.54C135.958 26.89 136.103 28.725 136.393 31.045C136.333 31.315 136.188 31.45 135.958 31.45H135.928C135.578 31.45 135.403 31 135.403 30.1C135.273 29.43 135.163 27.975 135.073 25.735H134.803C133.863 25.675 133.393 25.455 133.393 25.075C133.393 24.965 133.498 24.83 133.708 24.67H133.858L134.548 24.85H135.028L134.893 22.975C134.893 22.255 135.078 21.895 135.448 21.895ZM141.41 25.345C142.15 25.345 142.71 25.895 143.09 26.995L143.15 27.31C143.15 28.38 142.65 29.475 141.65 30.595C141.25 30.965 140.845 31.15 140.435 31.15C139.835 31.15 139.41 30.805 139.16 30.115C139.07 29.795 139.025 29.515 139.025 29.275V29.095C139.025 27.515 139.6 26.315 140.75 25.495C140.95 25.395 141.17 25.345 141.41 25.345ZM139.91 29.245C139.91 29.925 140.085 30.265 140.435 30.265C141.165 30.265 141.77 29.33 142.25 27.46V27.175C142.08 26.555 141.765 26.245 141.305 26.245C141.125 26.245 141.035 26.37 141.035 26.62C141.035 26.79 140.835 26.925 140.435 27.025C140.085 27.615 139.91 28.355 139.91 29.245ZM151.314 26.545C152.374 26.545 152.999 27.21 153.189 28.54C153.189 29.72 152.639 30.565 151.539 31.075C151.419 31.135 151.254 31.165 151.044 31.165H150.939L150.609 31.135V31.165L150.669 35.17C150.599 35.48 150.439 35.635 150.189 35.635C149.909 35.545 149.769 35.4 149.769 35.2L149.634 27.04C149.634 26.78 149.789 26.645 150.099 26.635L150.414 26.77C150.694 26.62 150.994 26.545 151.314 26.545ZM150.564 28.135L150.519 28.6L150.564 30.19L150.984 30.295C151.654 30.295 152.089 29.805 152.289 28.825V28.6C152.219 27.81 151.939 27.415 151.449 27.415H151.224C150.784 27.415 150.564 27.655 150.564 28.135ZM154.747 22.735C155.027 22.835 155.167 22.99 155.167 23.2L155.317 28.915V30.76C155.317 31.1 155.172 31.27 154.882 31.27H154.687C154.507 31.15 154.417 31.01 154.417 30.85V29.11L154.282 23.17C154.282 22.92 154.437 22.775 154.747 22.735ZM159.202 25.21C159.642 25.21 159.862 25.385 159.862 25.735L159.727 26.02L159.637 28.765C159.637 30.005 159.887 30.775 160.387 31.075L160.417 31.3C160.387 31.59 160.252 31.735 160.012 31.735H159.922C159.172 31.225 158.797 30.445 158.797 29.395H158.692C158.292 30.515 157.807 31.075 157.237 31.075C156.707 30.925 156.442 30.53 156.442 29.89C156.442 28.48 157.007 27.075 158.137 25.675C158.517 25.365 158.872 25.21 159.202 25.21ZM157.387 29.29L157.327 29.71V29.995H157.477C158.227 28.125 158.602 26.985 158.602 26.575H158.542C157.962 27.225 157.577 28.13 157.387 29.29ZM161.257 26.5C161.607 26.5 161.847 27.27 161.977 28.81C162.147 29.52 162.272 29.875 162.352 29.875H162.442C162.692 29.245 162.817 28.62 162.817 28L162.727 26.965C162.837 26.695 162.992 26.56 163.192 26.56C163.562 26.56 163.747 27.215 163.747 28.525C163.967 29.885 164.077 31.15 164.077 32.32V33.025C164.077 35.175 163.467 36.625 162.247 37.375L161.917 37.435C161.347 37.435 160.817 36.905 160.327 35.845L160.192 34.945V34.9C160.192 34.24 160.377 33.91 160.747 33.91L161.122 34.15L161.077 35.095C161.077 35.555 161.312 36.02 161.782 36.49H161.977C162.527 36.49 162.932 35.44 163.192 33.34L163.222 32.47C163.212 31.46 163.172 30.815 163.102 30.535C162.702 30.885 162.387 31.06 162.157 31.06C161.647 31.06 161.192 29.695 160.792 26.965L160.747 26.935C160.747 26.705 160.917 26.56 161.257 26.5ZM170.581 23.185C170.961 23.265 171.151 23.435 171.151 23.695C171.051 23.975 170.891 24.115 170.671 24.115C170.301 24.045 170.116 23.86 170.116 23.56C170.216 23.31 170.371 23.185 170.581 23.185ZM171.151 25.285C171.311 25.285 171.446 25.43 171.556 25.72L171.421 26.785V27.49C171.421 28.31 171.561 29.385 171.841 30.715C171.741 30.905 171.571 31 171.331 31C170.921 31 170.651 29.8 170.521 27.4V26.875C170.521 25.815 170.731 25.285 171.151 25.285ZM174.383 21.895C174.663 21.955 174.803 22.095 174.803 22.315L174.713 22.975V23.17C174.713 23.61 174.763 24.075 174.863 24.565H174.893C176.053 24.215 176.773 24.04 177.053 24.04C177.343 24.12 177.488 24.265 177.488 24.475C177.488 24.815 177.143 24.985 176.453 24.985L174.893 25.54C174.893 26.89 175.038 28.725 175.328 31.045C175.268 31.315 175.123 31.45 174.893 31.45H174.863C174.513 31.45 174.338 31 174.338 30.1C174.208 29.43 174.098 27.975 174.008 25.735H173.738C172.798 25.675 172.328 25.455 172.328 25.075C172.328 24.965 172.433 24.83 172.643 24.67H172.793L173.483 24.85H173.963L173.828 22.975C173.828 22.255 174.013 21.895 174.383 21.895ZM179.16 30.115C179.37 30.115 179.495 30.285 179.535 30.625C179.475 30.975 179.3 31.15 179.01 31.15C178.81 31.15 178.67 30.975 178.59 30.625C178.71 30.285 178.9 30.115 179.16 30.115Z" fill="#000"/>
</svg>
