<svg width="351" height="68" viewBox="0 0 351 68" fill="none" xmlns="http://www.w3.org/2000/svg">
<path d="M17.4468 36.3516C12.9937 36.3516 9.77492 35.6328 7.79054 34.1953C5.82179 32.7422 4.83742 30.3359 4.83742 26.9766V17.6953H0.12648V10.3125H4.83742V4.52344H16.1812V10.3125H23.3765V17.6953H16.1812V25.3359C16.1812 26.6328 16.5327 27.5625 17.2359 28.125C17.939 28.6719 19.1265 28.9453 20.7984 28.9453C21.3296 28.9453 21.7984 28.9297 22.2046 28.8984C22.6265 28.8516 23.0171 28.8047 23.3765 28.7578V35.9297C22.564 36.0547 21.6499 36.1562 20.6343 36.2344C19.6187 36.3125 18.5562 36.3516 17.4468 36.3516ZM26.459 36V2.17969H36.373V15.5625H36.5137C37.4043 13.8125 38.7246 12.4375 40.4746 11.4375C42.2246 10.4375 44.3652 9.9375 46.8965 9.9375C49.2871 9.9375 51.3262 10.3828 53.0137 11.2734C54.7012 12.1484 55.9902 13.4219 56.8809 15.0938C57.7715 16.7656 58.2168 18.7891 58.2168 21.1641V36H48.3262V23.2969C48.3262 21.2812 47.8418 19.75 46.873 18.7031C45.9043 17.6406 44.4824 17.1094 42.6074 17.1094C41.3262 17.1094 40.2168 17.3672 39.2793 17.8828C38.3418 18.3984 37.623 19.1328 37.123 20.0859C36.623 21.0234 36.373 22.1406 36.373 23.4375V36H26.459ZM61.2993 36V10.5703H68.8696V36H61.2993ZM65.0727 8.25C63.9946 8.25 63.0727 7.86719 62.3071 7.10156C61.5571 6.32031 61.1821 5.39062 61.1821 4.3125C61.1821 3.25 61.5571 2.32812 62.3071 1.54688C63.0727 0.765625 63.9946 0.375 65.0727 0.375C66.1665 0.375 67.0884 0.765625 67.8384 1.54688C68.5884 2.32812 68.9634 3.25 68.9634 4.3125C68.9634 5.39062 68.5884 6.32031 67.8384 7.10156C67.0884 7.86719 66.1665 8.25 65.0727 8.25ZM80.5771 36.4453C78.5615 36.4453 76.8193 36.1172 75.3505 35.4609C73.8974 34.8047 72.7724 33.875 71.9755 32.6719C71.1943 31.4688 70.788 30.0391 70.7568 28.3828V27.9141H78.0459V28.5703C78.0771 29.4297 78.2959 30.0625 78.7021 30.4688C79.1084 30.875 79.6865 31.0781 80.4365 31.0781C80.874 31.0781 81.249 31 81.5615 30.8438C81.8896 30.6875 82.1396 30.4766 82.3115 30.2109C82.4834 29.9297 82.5693 29.6016 82.5693 29.2266V29.2031C82.5693 28.5781 82.3505 28.0469 81.913 27.6094C81.4912 27.1719 80.7724 26.7656 79.7568 26.3906L77.3193 25.5703C75.9443 25.0703 74.8037 24.4688 73.8974 23.7656C72.9912 23.0469 72.3193 22.2109 71.8818 21.2578C71.4443 20.3047 71.2255 19.2188 71.2255 18V17.9531C71.2255 16.4219 71.6162 15.0703 72.3974 13.8984C73.1943 12.7109 74.288 11.7891 75.6787 11.1328C77.0849 10.4609 78.7177 10.125 80.5771 10.125C82.4209 10.125 84.0146 10.4609 85.3584 11.1328C86.7021 11.8047 87.7412 12.7344 88.4755 13.9219C89.2099 15.1094 89.5849 16.4844 89.6005 18.0469V18.6797H82.7802V18.0938C82.7646 17.2812 82.5615 16.6484 82.1709 16.1953C81.7959 15.7422 81.2724 15.5156 80.6005 15.5156C80.163 15.5156 79.788 15.5938 79.4755 15.75C79.1787 15.8906 78.9443 16.1094 78.7724 16.4062C78.6162 16.6875 78.538 17.0156 78.538 17.3906V17.4375C78.538 17.8281 78.624 18.1797 78.7959 18.4922C78.9834 18.7891 79.2724 19.0625 79.663 19.3125C80.0537 19.5469 80.5849 19.7891 81.2568 20.0391L83.6943 20.8594C85.9599 21.6875 87.5927 22.7031 88.5927 23.9062C89.5927 25.0938 90.0927 26.6172 90.0927 28.4766V28.5C90.0927 30.1094 89.7021 31.5078 88.9209 32.6953C88.1396 33.8828 87.0302 34.8047 85.5927 35.4609C84.1709 36.1172 82.499 36.4453 80.5771 36.4453ZM103.734 36V11.6016H107.625V36H103.734ZM105.68 8.15625C105.023 8.15625 104.453 7.91406 103.969 7.42969C103.484 6.92969 103.242 6.33594 103.242 5.64844C103.242 4.94531 103.484 4.35156 103.969 3.86719C104.453 3.38281 105.023 3.14062 105.68 3.14062C106.367 3.14062 106.945 3.38281 107.414 3.86719C107.883 4.35156 108.117 4.94531 108.117 5.64844C108.117 6.33594 107.883 6.92969 107.414 7.42969C106.945 7.91406 106.367 8.15625 105.68 8.15625ZM118.348 36.375C116.801 36.375 115.465 36.0859 114.34 35.5078C113.231 34.9297 112.364 34.1016 111.739 33.0234C111.129 31.9453 110.817 30.6562 110.801 29.1562V28.5234H114.575V29.0391C114.621 30.3516 114.965 31.3516 115.606 32.0391C116.262 32.7109 117.2 33.0469 118.418 33.0469C119.137 33.0469 119.754 32.9141 120.27 32.6484C120.786 32.3828 121.184 32 121.465 31.5C121.746 31 121.887 30.4297 121.887 29.7891V29.7422C121.887 28.8203 121.629 28.0547 121.114 27.4453C120.598 26.8359 119.731 26.2812 118.512 25.7812L116.543 25.0078C115.325 24.5078 114.317 23.9219 113.52 23.25C112.739 22.5625 112.145 21.7891 111.739 20.9297C111.348 20.0547 111.153 19.0781 111.153 18V17.9531C111.153 16.6719 111.465 15.5234 112.09 14.5078C112.715 13.4766 113.567 12.6719 114.645 12.0938C115.739 11.5156 116.996 11.2266 118.418 11.2266C119.871 11.2266 121.114 11.5078 122.145 12.0703C123.176 12.6328 123.965 13.4453 124.512 14.5078C125.075 15.5547 125.371 16.7891 125.403 18.2109V19.0781H121.746L121.723 18.3984C121.692 17.1797 121.387 16.2344 120.809 15.5625C120.246 14.8906 119.442 14.5547 118.395 14.5547C117.723 14.5547 117.137 14.6875 116.637 14.9531C116.153 15.2188 115.778 15.5938 115.512 16.0781C115.262 16.5625 115.137 17.1328 115.137 17.7891V17.8359C115.137 18.4453 115.239 18.9844 115.442 19.4531C115.661 19.9219 116.02 20.3438 116.52 20.7188C117.02 21.0938 117.684 21.4453 118.512 21.7734L120.457 22.5469C122.364 23.3281 123.739 24.2656 124.582 25.3594C125.426 26.4375 125.848 27.7969 125.848 29.4375V29.4609C125.848 30.8359 125.536 32.0469 124.911 33.0938C124.286 34.125 123.411 34.9297 122.286 35.5078C121.161 36.0859 119.848 36.375 118.348 36.375ZM127.852 42.7266L129.423 30.8906H133.477L130.618 42.7266H127.852ZM148.924 36V10.8047L157.596 10.8516V15.9844H157.76C158.26 14.1562 159.181 12.75 160.525 11.7656C161.869 10.7812 163.541 10.2891 165.541 10.2891C166.025 10.2891 166.486 10.3203 166.924 10.3828C167.377 10.4297 167.775 10.5 168.119 10.5938V17.4375C167.681 17.3281 167.197 17.25 166.666 17.2031C166.135 17.1406 165.588 17.1094 165.025 17.1094C163.525 17.1094 162.213 17.3828 161.088 17.9297C159.978 18.4609 159.119 19.2734 158.51 20.3672C157.9 21.4453 157.596 22.8203 157.596 24.4922V36H148.924ZM186.155 36.6328C182.717 36.6328 179.748 36.1094 177.248 35.0625C174.748 34.0156 172.819 32.5078 171.459 30.5391C170.116 28.5703 169.444 26.1875 169.444 23.3906V23.3672C169.444 20.5859 170.131 18.1953 171.506 16.1953C172.881 14.1797 174.795 12.6328 177.248 11.5547C179.717 10.4766 182.576 9.94531 185.826 9.96094C189.17 9.96094 192.053 10.5234 194.475 11.6484C196.912 12.7734 198.795 14.3516 200.123 16.3828C201.451 18.4141 202.116 20.8047 202.116 23.5547V25.3359L174.576 25.3125V20.5078H195.67L192.905 23.9531V22.3125C192.905 21.0156 192.639 19.9062 192.108 18.9844C191.576 18.0625 190.803 17.3516 189.787 16.8516C188.772 16.3516 187.537 16.1016 186.084 16.1016C184.584 16.1016 183.303 16.3438 182.241 16.8281C181.178 17.3125 180.366 18.0312 179.803 18.9844C179.241 19.9375 178.959 21.1094 178.959 22.5V23.9531C178.959 25.5156 179.272 26.7812 179.897 27.75C180.522 28.7188 181.397 29.4219 182.522 29.8594C183.647 30.2969 184.967 30.5156 186.483 30.5156C187.451 30.5156 188.342 30.4141 189.155 30.2109C189.967 29.9922 190.67 29.6875 191.264 29.2969C191.858 28.9062 192.311 28.4531 192.623 27.9375L192.694 27.7969H201.764L201.717 28.0547C201.373 29.3516 200.756 30.5312 199.866 31.5938C198.991 32.6406 197.881 33.5391 196.537 34.2891C195.194 35.0391 193.647 35.6172 191.897 36.0234C190.162 36.4297 188.248 36.6328 186.155 36.6328ZM226.807 36.6328C225.12 36.6328 223.596 36.4141 222.237 35.9766C220.878 35.5234 219.706 34.9062 218.721 34.125C217.737 33.3438 216.956 32.4453 216.378 31.4297H216.214V36H204.87V2.17969H216.214V14.9531H216.378C216.971 13.9062 217.753 12.9844 218.721 12.1875C219.706 11.3906 220.87 10.7734 222.214 10.3359C223.573 9.88281 225.104 9.65625 226.807 9.65625C229.417 9.65625 231.714 10.2031 233.698 11.2969C235.682 12.375 237.229 13.9219 238.339 15.9375C239.464 17.9375 240.026 20.3359 240.026 23.1328V23.1562C240.026 25.9375 239.464 28.3359 238.339 30.3516C237.229 32.3672 235.682 33.9219 233.698 35.0156C231.714 36.0938 229.417 36.6328 226.807 36.6328ZM222.378 28.8984C223.612 28.8984 224.69 28.6719 225.612 28.2188C226.534 27.7656 227.245 27.1172 227.745 26.2734C228.245 25.4141 228.495 24.375 228.495 23.1562V23.1328C228.495 21.9297 228.237 20.8984 227.721 20.0391C227.221 19.1797 226.511 18.5312 225.589 18.0938C224.667 17.6406 223.596 17.4141 222.378 17.4141C221.128 17.4141 220.042 17.6406 219.12 18.0938C218.198 18.5469 217.479 19.2031 216.964 20.0625C216.464 20.9062 216.214 21.9297 216.214 23.1328V23.1797C216.214 24.3828 216.464 25.4141 216.964 26.2734C217.479 27.1172 218.198 27.7656 219.12 28.2188C220.042 28.6719 221.128 28.8984 222.378 28.8984ZM259.327 36.6562C255.749 36.6562 252.663 36.1172 250.07 35.0391C247.476 33.9453 245.468 32.3906 244.046 30.375C242.64 28.3594 241.937 25.9609 241.937 23.1797V23.1328C241.937 20.3672 242.648 17.9766 244.07 15.9609C245.491 13.9453 247.499 12.3906 250.093 11.2969C252.702 10.2031 255.781 9.65625 259.327 9.65625C262.874 9.65625 265.945 10.2031 268.538 11.2969C271.148 12.3906 273.163 13.9453 274.585 15.9609C276.007 17.9609 276.718 20.3516 276.718 23.1328V23.1797C276.718 25.9766 276.007 28.3828 274.585 30.3984C273.179 32.3984 271.171 33.9453 268.562 35.0391C265.968 36.1172 262.89 36.6562 259.327 36.6562ZM259.327 29.1328C260.515 29.1328 261.546 28.8984 262.421 28.4297C263.296 27.9609 263.976 27.2812 264.46 26.3906C264.945 25.5 265.187 24.4297 265.187 23.1797V23.1328C265.187 21.8828 264.937 20.8203 264.437 19.9453C263.952 19.0547 263.273 18.375 262.398 17.9062C261.523 17.4375 260.499 17.2031 259.327 17.2031C258.14 17.2031 257.109 17.4375 256.234 17.9062C255.359 18.375 254.671 19.0547 254.171 19.9453C253.687 20.8203 253.445 21.8828 253.445 23.1328V23.1797C253.445 24.4297 253.687 25.5 254.171 26.3906C254.656 27.2812 255.335 27.9609 256.21 28.4297C257.101 28.8984 258.14 29.1328 259.327 29.1328ZM279.332 36V10.3125L290.699 10.4062V15.7031H290.863C291.316 13.7656 292.176 12.2969 293.441 11.2969C294.722 10.2813 296.363 9.77344 298.363 9.77344C298.863 9.77344 299.347 9.8125 299.816 9.89062C300.301 9.95313 300.738 10.0391 301.129 10.1484V18.75C300.629 18.6094 300.09 18.5078 299.511 18.4453C298.949 18.3672 298.386 18.3281 297.824 18.3281C296.371 18.3281 295.113 18.5703 294.051 19.0547C292.988 19.5234 292.16 20.2734 291.566 21.3047C290.988 22.3359 290.699 23.6797 290.699 25.3359V36H279.332ZM303.039 36V10.3125H314.406V15.3281H314.571C315.446 13.5469 316.75 12.1562 318.485 11.1562C320.219 10.1562 322.36 9.65625 324.906 9.65625C328.469 9.65625 331.235 10.6172 333.203 12.5391C335.172 14.4453 336.156 17.1797 336.156 20.7422V36H324.813V23.25C324.813 21.4375 324.383 20.0625 323.524 19.125C322.68 18.1719 321.438 17.6953 319.797 17.6953C318.688 17.6953 317.727 17.9219 316.914 18.375C316.117 18.8281 315.5 19.4766 315.063 20.3203C314.625 21.1484 314.406 22.1484 314.406 23.3203V36H303.039ZM344.747 36.375C343.106 36.375 341.755 35.875 340.692 34.875C339.645 33.875 339.122 32.6328 339.122 31.1484C339.122 29.6641 339.653 28.4219 340.716 27.4219C341.778 26.4062 343.122 25.8984 344.747 25.8984C346.403 25.8984 347.755 26.4062 348.801 27.4219C349.864 28.4219 350.395 29.6641 350.395 31.1484C350.395 32.6328 349.864 33.875 348.801 34.875C347.739 35.875 346.387 36.375 344.747 36.375ZM51.6918 65L48.5434 53.7266H49.1762L51.9496 63.9297H51.9965L54.9652 53.7266H55.5355L58.5043 63.9297H58.5512L61.3246 53.7266H61.9574L58.809 65H58.2699L55.2777 54.8906H55.223L52.2309 65H51.6918ZM66.4302 65.1328C65.6646 65.1328 65.0005 64.9583 64.438 64.6094C63.8755 64.2552 63.4406 63.7552 63.1333 63.1094C62.8261 62.4583 62.6724 61.6953 62.6724 60.8203V60.8047C62.6724 59.9141 62.8235 59.1458 63.1255 58.5C63.4328 57.849 63.8625 57.3464 64.4146 56.9922C64.9667 56.638 65.6125 56.4609 66.3521 56.4609C67.0917 56.4609 67.7297 56.6354 68.2662 56.9844C68.8078 57.3281 69.2245 57.8125 69.5162 58.4375C69.8078 59.0573 69.9537 59.776 69.9537 60.5938V60.8984H62.9771V60.3906H69.6568L69.3677 60.8438V60.6406C69.3677 59.875 69.2401 59.224 68.9849 58.6875C68.7349 58.1458 68.3833 57.7318 67.9302 57.4453C67.4771 57.1536 66.9511 57.0078 66.3521 57.0078C65.7479 57.0078 65.2141 57.1536 64.7505 57.4453C64.2922 57.737 63.9328 58.1536 63.6724 58.6953C63.412 59.237 63.2818 59.8854 63.2818 60.6406V60.8438C63.2818 61.6094 63.412 62.2734 63.6724 62.8359C63.9328 63.3932 64.3 63.8255 64.774 64.1328C65.2479 64.4349 65.8026 64.5859 66.438 64.5859C66.886 64.5859 67.2948 64.5208 67.6646 64.3906C68.0344 64.2604 68.3469 64.0833 68.6021 63.8594C68.8625 63.6354 69.05 63.3828 69.1646 63.1016L69.1802 63.0547H69.7896L69.774 63.1172C69.675 63.4036 69.524 63.6693 69.3208 63.9141C69.1229 64.1536 68.8781 64.3646 68.5865 64.5469C68.3 64.7292 67.9745 64.8724 67.6099 64.9766C67.2505 65.0807 66.8573 65.1328 66.4302 65.1328ZM78.3915 65.1328C77.8446 65.1328 77.3576 65.0339 76.9305 64.8359C76.5087 64.6328 76.1779 64.3516 75.9384 63.9922C75.704 63.6276 75.5868 63.2057 75.5868 62.7266V62.7109C75.5868 62.237 75.7014 61.8307 75.9305 61.4922C76.1597 61.1536 76.4956 60.8854 76.9384 60.6875C77.3811 60.4896 77.9253 60.3672 78.5712 60.3203L81.7743 60.0781V60.5938L78.6649 60.8281C77.8524 60.8854 77.2378 61.0755 76.8212 61.3984C76.4045 61.7161 76.1962 62.151 76.1962 62.7031V62.7188C76.1962 63.276 76.4071 63.7292 76.829 64.0781C77.2509 64.4219 77.7977 64.5938 78.4696 64.5938C79.0321 64.5938 79.5399 64.4714 79.993 64.2266C80.4462 63.9818 80.8055 63.6562 81.0712 63.25C81.3368 62.8385 81.4696 62.3776 81.4696 61.8672V59.2891C81.4696 58.5391 81.2561 57.9714 80.829 57.5859C80.4071 57.2005 79.8212 57.0078 79.0712 57.0078C78.4097 57.0078 77.8498 57.1484 77.3915 57.4297C76.9331 57.7109 76.6467 58.1198 76.5321 58.6562L76.5243 58.6719H75.9227V58.6484C76.0009 58.1953 76.1831 57.8047 76.4696 57.4766C76.7561 57.1484 77.1233 56.8984 77.5712 56.7266C78.0191 56.5495 78.5243 56.4609 79.0868 56.4609C79.7066 56.4609 80.2378 56.5703 80.6805 56.7891C81.1285 57.0026 81.4722 57.3203 81.7118 57.7422C81.9514 58.1589 82.0712 58.6693 82.0712 59.2734V65H81.4696V63.2734H81.4149C81.2587 63.6536 81.0321 63.9818 80.7352 64.2578C80.4436 64.5339 80.0972 64.75 79.6962 64.9062C79.2951 65.0573 78.8602 65.1328 78.3915 65.1328ZM84.6377 65V56.5859H85.2393V58.1562H85.294C85.4659 57.625 85.7575 57.2109 86.169 56.9141C86.5804 56.612 87.07 56.4609 87.6377 56.4609C87.8252 56.4609 87.9919 56.4714 88.1377 56.4922C88.2836 56.5078 88.4294 56.5365 88.5752 56.5781V57.1797C88.4138 57.1224 88.2549 57.0833 88.0987 57.0625C87.9476 57.0417 87.7784 57.0312 87.5909 57.0312C87.1481 57.0312 86.7471 57.1484 86.3877 57.3828C86.0336 57.6172 85.7523 57.9375 85.544 58.3438C85.3409 58.7448 85.2393 59.2005 85.2393 59.7109V65H84.6377ZM93.3058 65.1328C92.5402 65.1328 91.8762 64.9583 91.3137 64.6094C90.7512 64.2552 90.3163 63.7552 90.009 63.1094C89.7017 62.4583 89.548 61.6953 89.548 60.8203V60.8047C89.548 59.9141 89.6991 59.1458 90.0012 58.5C90.3085 57.849 90.7381 57.3464 91.2902 56.9922C91.8423 56.638 92.4881 56.4609 93.2277 56.4609C93.9673 56.4609 94.6053 56.6354 95.1418 56.9844C95.6835 57.3281 96.1001 57.8125 96.3918 58.4375C96.6835 59.0573 96.8293 59.776 96.8293 60.5938V60.8984H89.8527V60.3906H96.5324L96.2433 60.8438V60.6406C96.2433 59.875 96.1157 59.224 95.8605 58.6875C95.6105 58.1458 95.259 57.7318 94.8058 57.4453C94.3527 57.1536 93.8267 57.0078 93.2277 57.0078C92.6236 57.0078 92.0897 57.1536 91.6262 57.4453C91.1678 57.737 90.8085 58.1536 90.548 58.6953C90.2876 59.237 90.1574 59.8854 90.1574 60.6406V60.8438C90.1574 61.6094 90.2876 62.2734 90.548 62.8359C90.8085 63.3932 91.1756 63.8255 91.6496 64.1328C92.1236 64.4349 92.6782 64.5859 93.3137 64.5859C93.7616 64.5859 94.1704 64.5208 94.5402 64.3906C94.91 64.2604 95.2225 64.0833 95.4777 63.8594C95.7381 63.6354 95.9256 63.3828 96.0402 63.1016L96.0558 63.0547H96.6652L96.6496 63.1172C96.5506 63.4036 96.3996 63.6693 96.1965 63.9141C95.9986 64.1536 95.7538 64.3646 95.4621 64.5469C95.1756 64.7292 94.8501 64.8724 94.4855 64.9766C94.1262 65.0807 93.7329 65.1328 93.3058 65.1328ZM106.767 65.1328C106.283 65.1328 105.835 65.0417 105.423 64.8594C105.012 64.6719 104.655 64.4115 104.353 64.0781C104.051 63.7396 103.824 63.3385 103.673 62.875H103.619V65H103.017V53.2344H103.619V58.6406H103.673C103.835 58.1979 104.067 57.8125 104.369 57.4844C104.671 57.1562 105.028 56.9036 105.439 56.7266C105.85 56.5495 106.293 56.4609 106.767 56.4609C107.475 56.4609 108.095 56.6406 108.626 57C109.158 57.3594 109.572 57.8646 109.869 58.5156C110.166 59.1615 110.314 59.9141 110.314 60.7734V60.7891C110.314 61.6484 110.166 62.4062 109.869 63.0625C109.572 63.7135 109.155 64.2214 108.619 64.5859C108.087 64.9505 107.47 65.1328 106.767 65.1328ZM106.681 64.5859C107.291 64.5859 107.819 64.4271 108.267 64.1094C108.72 63.7917 109.072 63.349 109.322 62.7812C109.577 62.2083 109.705 61.5443 109.705 60.7891V60.7734C109.705 60.0182 109.58 59.3594 109.33 58.7969C109.08 58.2292 108.728 57.7891 108.275 57.4766C107.822 57.1641 107.291 57.0078 106.681 57.0078C106.072 57.0078 105.535 57.1667 105.072 57.4844C104.613 57.7969 104.254 58.237 103.994 58.8047C103.738 59.3672 103.611 60.0234 103.611 60.7734V60.7891C103.611 61.5391 103.741 62.2005 104.001 62.7734C104.262 63.3411 104.621 63.7865 105.08 64.1094C105.543 64.4271 106.077 64.5859 106.681 64.5859ZM114.841 65.1328C114.295 65.1328 113.808 65.0339 113.381 64.8359C112.959 64.6328 112.628 64.3516 112.388 63.9922C112.154 63.6276 112.037 63.2057 112.037 62.7266V62.7109C112.037 62.237 112.151 61.8307 112.381 61.4922C112.61 61.1536 112.946 60.8854 113.388 60.6875C113.831 60.4896 114.375 60.3672 115.021 60.3203L118.224 60.0781V60.5938L115.115 60.8281C114.302 60.8854 113.688 61.0755 113.271 61.3984C112.854 61.7161 112.646 62.151 112.646 62.7031V62.7188C112.646 63.276 112.857 63.7292 113.279 64.0781C113.701 64.4219 114.248 64.5938 114.92 64.5938C115.482 64.5938 115.99 64.4714 116.443 64.2266C116.896 63.9818 117.256 63.6562 117.521 63.25C117.787 62.8385 117.92 62.3776 117.92 61.8672V59.2891C117.92 58.5391 117.706 57.9714 117.279 57.5859C116.857 57.2005 116.271 57.0078 115.521 57.0078C114.86 57.0078 114.3 57.1484 113.841 57.4297C113.383 57.7109 113.097 58.1198 112.982 58.6562L112.974 58.6719H112.373V58.6484C112.451 58.1953 112.633 57.8047 112.92 57.4766C113.206 57.1484 113.573 56.8984 114.021 56.7266C114.469 56.5495 114.974 56.4609 115.537 56.4609C116.157 56.4609 116.688 56.5703 117.131 56.7891C117.578 57.0026 117.922 57.3203 118.162 57.7422C118.401 58.1589 118.521 58.6693 118.521 59.2734V65H117.92V63.2734H117.865C117.709 63.6536 117.482 63.9818 117.185 64.2578C116.894 64.5339 116.547 64.75 116.146 64.9062C115.745 65.0573 115.31 65.1328 114.841 65.1328ZM124.369 65.1328C123.614 65.1328 122.958 64.9557 122.4 64.6016C121.843 64.2422 121.413 63.737 121.111 63.0859C120.809 62.4349 120.658 61.6641 120.658 60.7734V60.7578C120.658 59.8828 120.809 59.125 121.111 58.4844C121.413 57.8385 121.84 57.3411 122.392 56.9922C122.95 56.638 123.609 56.4609 124.369 56.4609C124.958 56.4609 125.484 56.5677 125.947 56.7812C126.416 56.9896 126.801 57.2812 127.103 57.6562C127.411 58.026 127.611 58.4505 127.705 58.9297L127.697 58.9375L127.103 58.9453V58.9297C126.952 58.3568 126.632 57.8932 126.142 57.5391C125.653 57.1849 125.062 57.0078 124.369 57.0078C123.739 57.0078 123.189 57.1615 122.721 57.4688C122.257 57.776 121.898 58.2109 121.642 58.7734C121.392 59.3359 121.267 59.9974 121.267 60.7578V60.7734C121.267 61.5443 121.395 62.2161 121.65 62.7891C121.905 63.362 122.265 63.8047 122.728 64.1172C123.197 64.4297 123.744 64.5859 124.369 64.5859C125.062 64.5859 125.65 64.4219 126.135 64.0938C126.624 63.7656 126.942 63.3203 127.088 62.7578L127.096 62.7422L127.697 62.7344L127.689 62.7656C127.585 63.2396 127.385 63.6562 127.088 64.0156C126.791 64.3698 126.413 64.6458 125.955 64.8438C125.497 65.0365 124.968 65.1328 124.369 65.1328ZM129.943 65V53.2344H130.545V65H129.943ZM135.396 65L131.553 60.3984L132.014 60.0234L136.17 65H135.396ZM130.381 61.7969L130.357 60.8828H130.6L135.311 56.5859H136.1L131.928 60.3828H131.904L130.381 61.7969ZM137.799 67.5469L138.549 63.7734H139.276L138.276 67.5469H137.799ZM147.791 65L145.377 56.5859H145.987L148.135 64.2891H148.19L150.526 56.5859H151.206L153.541 64.2891H153.604L155.776 56.5859H156.385L153.94 65H153.229L150.893 57.3828H150.838L148.502 65H147.791ZM158.194 65V56.5859H158.796V65H158.194ZM158.499 54.6875C158.358 54.6875 158.236 54.6354 158.131 54.5312C158.027 54.4271 157.975 54.3047 157.975 54.1641C157.975 54.0182 158.027 53.8958 158.131 53.7969C158.236 53.6927 158.358 53.6406 158.499 53.6406C158.644 53.6406 158.767 53.6927 158.866 53.7969C158.97 53.8958 159.022 54.0182 159.022 54.1641C159.022 54.3047 158.97 54.4271 158.866 54.5312C158.767 54.6354 158.644 54.6875 158.499 54.6875ZM163.979 65.0547C163.266 65.0547 162.753 64.8958 162.44 64.5781C162.128 64.2604 161.971 63.7448 161.971 63.0312V57.1172H160.589V56.5859H161.971V54.3984H162.589V56.5859H164.62V57.1172H162.589V62.9375C162.589 63.4844 162.698 63.8828 162.917 64.1328C163.141 64.3828 163.513 64.5078 164.034 64.5078C164.149 64.5078 164.253 64.5052 164.346 64.5C164.445 64.4896 164.537 64.4818 164.62 64.4766V65C164.516 65.0156 164.412 65.0286 164.307 65.0391C164.208 65.0495 164.099 65.0547 163.979 65.0547ZM166.843 65V53.2344H167.444V58.3516H167.499C167.744 57.7578 168.121 57.2943 168.632 56.9609C169.147 56.6276 169.752 56.4609 170.444 56.4609C171.064 56.4609 171.593 56.5833 172.03 56.8281C172.473 57.0677 172.811 57.4141 173.046 57.8672C173.285 58.3203 173.405 58.8646 173.405 59.5V65H172.811V59.6641C172.811 58.8047 172.598 58.1484 172.171 57.6953C171.749 57.237 171.137 57.0078 170.335 57.0078C169.778 57.0078 169.28 57.1354 168.843 57.3906C168.41 57.6406 168.069 57.9896 167.819 58.4375C167.569 58.8854 167.444 59.401 167.444 59.9844V65H166.843ZM179.866 65V56.5859H180.468V58.3516H180.523C180.768 57.7578 181.145 57.2943 181.656 56.9609C182.166 56.6276 182.77 56.4609 183.468 56.4609C184.4 56.4609 185.127 56.7318 185.648 57.2734C186.169 57.8099 186.429 58.5521 186.429 59.5V65H185.835V59.6641C185.835 58.8151 185.622 58.1615 185.195 57.7031C184.773 57.2396 184.161 57.0078 183.359 57.0078C182.801 57.0078 182.304 57.1354 181.866 57.3906C181.434 57.6406 181.093 57.9896 180.843 58.4375C180.593 58.8854 180.468 59.401 180.468 59.9844V65H179.866ZM192.316 65.1328C191.55 65.1328 190.886 64.9583 190.324 64.6094C189.761 64.2552 189.326 63.7552 189.019 63.1094C188.712 62.4583 188.558 61.6953 188.558 60.8203V60.8047C188.558 59.9141 188.709 59.1458 189.011 58.5C189.318 57.849 189.748 57.3464 190.3 56.9922C190.852 56.638 191.498 56.4609 192.238 56.4609C192.977 56.4609 193.615 56.6354 194.152 56.9844C194.693 57.3281 195.11 57.8125 195.402 58.4375C195.693 59.0573 195.839 59.776 195.839 60.5938V60.8984H188.863V60.3906H195.542L195.253 60.8438V60.6406C195.253 59.875 195.126 59.224 194.871 58.6875C194.621 58.1458 194.269 57.7318 193.816 57.4453C193.363 57.1536 192.837 57.0078 192.238 57.0078C191.634 57.0078 191.1 57.1536 190.636 57.4453C190.178 57.737 189.818 58.1536 189.558 58.6953C189.298 59.237 189.167 59.8854 189.167 60.6406V60.8438C189.167 61.6094 189.298 62.2734 189.558 62.8359C189.818 63.3932 190.186 63.8255 190.66 64.1328C191.134 64.4349 191.688 64.5859 192.324 64.5859C192.772 64.5859 193.18 64.5208 193.55 64.3906C193.92 64.2604 194.233 64.0833 194.488 63.8594C194.748 63.6354 194.936 63.3828 195.05 63.1016L195.066 63.0547H195.675L195.66 63.1172C195.561 63.4036 195.41 63.6693 195.206 63.9141C195.009 64.1536 194.764 64.3646 194.472 64.5469C194.186 64.7292 193.86 64.8724 193.496 64.9766C193.136 65.0807 192.743 65.1328 192.316 65.1328ZM199.578 65L197.164 56.5859H197.773L199.921 64.2891H199.976L202.312 56.5859H202.992L205.328 64.2891H205.39L207.562 56.5859H208.171L205.726 65H205.015L202.679 57.3828H202.625L200.289 65H199.578ZM217.648 65.1328C217.164 65.1328 216.716 65.0417 216.305 64.8594C215.893 64.6719 215.536 64.4115 215.234 64.0781C214.932 63.7396 214.706 63.3385 214.555 62.875H214.5V65H213.898V53.2344H214.5V58.6406H214.555C214.716 58.1979 214.948 57.8125 215.25 57.4844C215.552 57.1562 215.909 56.9036 216.32 56.7266C216.732 56.5495 217.174 56.4609 217.648 56.4609C218.357 56.4609 218.976 56.6406 219.508 57C220.039 57.3594 220.453 57.8646 220.75 58.5156C221.047 59.1615 221.195 59.9141 221.195 60.7734V60.7891C221.195 61.6484 221.047 62.4062 220.75 63.0625C220.453 63.7135 220.036 64.2214 219.5 64.5859C218.969 64.9505 218.351 65.1328 217.648 65.1328ZM217.562 64.5859C218.172 64.5859 218.7 64.4271 219.148 64.1094C219.601 63.7917 219.953 63.349 220.203 62.7812C220.458 62.2083 220.586 61.5443 220.586 60.7891V60.7734C220.586 60.0182 220.461 59.3594 220.211 58.7969C219.961 58.2292 219.609 57.7891 219.156 57.4766C218.703 57.1641 218.172 57.0078 217.562 57.0078C216.953 57.0078 216.417 57.1667 215.953 57.4844C215.495 57.7969 215.135 58.237 214.875 58.8047C214.62 59.3672 214.492 60.0234 214.492 60.7734V60.7891C214.492 61.5391 214.622 62.2005 214.883 62.7734C215.143 63.3411 215.503 63.7865 215.961 64.1094C216.424 64.4271 216.958 64.5859 217.562 64.5859ZM223.395 65V56.5859H223.996V58.1562H224.051C224.223 57.625 224.514 57.2109 224.926 56.9141C225.337 56.612 225.827 56.4609 226.395 56.4609C226.582 56.4609 226.749 56.4714 226.895 56.4922C227.04 56.5078 227.186 56.5365 227.332 56.5781V57.1797C227.171 57.1224 227.012 57.0833 226.856 57.0625C226.705 57.0417 226.535 57.0312 226.348 57.0312C225.905 57.0312 225.504 57.1484 225.145 57.3828C224.79 57.6172 224.509 57.9375 224.301 58.3438C224.098 58.7448 223.996 59.2005 223.996 59.7109V65H223.395ZM231.016 65.1328C230.469 65.1328 229.982 65.0339 229.555 64.8359C229.133 64.6328 228.802 64.3516 228.563 63.9922C228.328 63.6276 228.211 63.2057 228.211 62.7266V62.7109C228.211 62.237 228.326 61.8307 228.555 61.4922C228.784 61.1536 229.12 60.8854 229.563 60.6875C230.005 60.4896 230.55 60.3672 231.196 60.3203L234.399 60.0781V60.5938L231.289 60.8281C230.477 60.8854 229.862 61.0755 229.446 61.3984C229.029 61.7161 228.821 62.151 228.821 62.7031V62.7188C228.821 63.276 229.031 63.7292 229.453 64.0781C229.875 64.4219 230.422 64.5938 231.094 64.5938C231.656 64.5938 232.164 64.4714 232.617 64.2266C233.071 63.9818 233.43 63.6562 233.696 63.25C233.961 62.8385 234.094 62.3776 234.094 61.8672V59.2891C234.094 58.5391 233.88 57.9714 233.453 57.5859C233.031 57.2005 232.446 57.0078 231.696 57.0078C231.034 57.0078 230.474 57.1484 230.016 57.4297C229.558 57.7109 229.271 58.1198 229.156 58.6562L229.149 58.6719H228.547V58.6484C228.625 58.1953 228.808 57.8047 229.094 57.4766C229.38 57.1484 229.748 56.8984 230.196 56.7266C230.643 56.5495 231.149 56.4609 231.711 56.4609C232.331 56.4609 232.862 56.5703 233.305 56.7891C233.753 57.0026 234.097 57.3203 234.336 57.7422C234.576 58.1589 234.696 58.6693 234.696 59.2734V65H234.094V63.2734H234.039C233.883 63.6536 233.656 63.9818 233.36 64.2578C233.068 64.5339 232.722 64.75 232.321 64.9062C231.919 65.0573 231.485 65.1328 231.016 65.1328ZM237.262 65V56.5859H237.864V58.3516H237.918C238.163 57.7578 238.541 57.2943 239.051 56.9609C239.562 56.6276 240.166 56.4609 240.864 56.4609C241.796 56.4609 242.523 56.7318 243.043 57.2734C243.564 57.8099 243.825 58.5521 243.825 59.5V65H243.231V59.6641C243.231 58.8151 243.017 58.1615 242.59 57.7031C242.168 57.2396 241.556 57.0078 240.754 57.0078C240.197 57.0078 239.7 57.1354 239.262 57.3906C238.83 57.6406 238.489 57.9896 238.239 58.4375C237.989 58.8854 237.864 59.401 237.864 59.9844V65H237.262ZM249.555 65.1328C248.847 65.1328 248.222 64.9505 247.68 64.5859C247.139 64.2214 246.714 63.7135 246.407 63.0625C246.105 62.4062 245.954 61.6536 245.954 60.8047V60.7891C245.954 59.9401 246.105 59.1901 246.407 58.5391C246.714 57.888 247.139 57.3802 247.68 57.0156C248.222 56.6458 248.847 56.4609 249.555 56.4609C250.029 56.4609 250.472 56.5521 250.883 56.7344C251.295 56.9115 251.652 57.1641 251.954 57.4922C252.261 57.8151 252.493 58.2031 252.649 58.6562H252.704V53.2344H253.305V65H252.704V62.875H252.649C252.498 63.3333 252.271 63.7318 251.969 64.0703C251.667 64.4089 251.31 64.6719 250.899 64.8594C250.488 65.0417 250.04 65.1328 249.555 65.1328ZM249.641 64.5859C250.251 64.5859 250.784 64.4271 251.243 64.1094C251.706 63.7865 252.068 63.3411 252.329 62.7734C252.589 62.2057 252.719 61.5495 252.719 60.8047V60.7891C252.719 60.0391 252.589 59.3802 252.329 58.8125C252.068 58.2448 251.706 57.8021 251.243 57.4844C250.784 57.1667 250.251 57.0078 249.641 57.0078C249.032 57.0078 248.495 57.1667 248.032 57.4844C247.573 57.8021 247.214 58.2448 246.954 58.8125C246.693 59.3802 246.563 60.0391 246.563 60.7891V60.8047C246.563 61.5495 246.693 62.2083 246.954 62.7812C247.214 63.349 247.573 63.7917 248.032 64.1094C248.495 64.4271 249.032 64.5859 249.641 64.5859ZM262.657 65.1328C262.063 65.1328 261.535 65.0443 261.071 64.8672C260.608 64.6901 260.233 64.4375 259.946 64.1094C259.665 63.7812 259.49 63.3906 259.423 62.9375H260.04C260.155 63.4531 260.444 63.8594 260.907 64.1562C261.376 64.4531 261.962 64.6016 262.665 64.6016C263.123 64.6016 263.537 64.526 263.907 64.375C264.277 64.2188 264.571 64.0052 264.79 63.7344C265.014 63.4635 265.126 63.1615 265.126 62.8281V62.8125C265.126 62.3438 264.957 61.9766 264.618 61.7109C264.285 61.4401 263.746 61.2214 263.001 61.0547L262.016 60.8203C261.506 60.7005 261.079 60.5495 260.735 60.3672C260.391 60.1849 260.134 59.9609 259.962 59.6953C259.795 59.4297 259.712 59.1094 259.712 58.7344V58.7188C259.712 58.2812 259.845 57.8932 260.11 57.5547C260.376 57.2109 260.727 56.9427 261.165 56.75C261.608 56.5573 262.092 56.4609 262.618 56.4609C263.149 56.4609 263.626 56.5469 264.048 56.7188C264.47 56.8906 264.816 57.1328 265.087 57.4453C265.358 57.7526 265.527 58.1198 265.595 58.5469H265.001C264.907 58.0781 264.641 57.7005 264.204 57.4141C263.772 57.1276 263.243 56.9844 262.618 56.9844C262.207 56.9844 261.826 57.0599 261.477 57.2109C261.128 57.362 260.847 57.5677 260.634 57.8281C260.425 58.0833 260.321 58.375 260.321 58.7031V58.7188C260.321 58.9948 260.391 59.2318 260.532 59.4297C260.678 59.6276 260.894 59.7969 261.181 59.9375C261.467 60.0781 261.824 60.2005 262.251 60.3047L263.235 60.5312C264.074 60.7292 264.699 60.9974 265.11 61.3359C265.527 61.6745 265.735 62.151 265.735 62.7656V62.7812C265.735 63.2344 265.597 63.638 265.321 63.9922C265.05 64.3464 264.681 64.625 264.212 64.8281C263.748 65.0312 263.23 65.1328 262.657 65.1328ZM270.349 65.0547C269.635 65.0547 269.122 64.8958 268.81 64.5781C268.497 64.2604 268.341 63.7448 268.341 63.0312V57.1172H266.958V56.5859H268.341V54.3984H268.958V56.5859H270.989V57.1172H268.958V62.9375C268.958 63.4844 269.067 63.8828 269.286 64.1328C269.51 64.3828 269.883 64.5078 270.403 64.5078C270.518 64.5078 270.622 64.5052 270.716 64.5C270.815 64.4896 270.906 64.4818 270.989 64.4766V65C270.885 65.0156 270.781 65.0286 270.677 65.0391C270.578 65.0495 270.468 65.0547 270.349 65.0547ZM276.111 65.1328C275.491 65.1328 274.952 65.0078 274.493 64.7578C274.04 64.5078 273.689 64.1562 273.439 63.7031C273.194 63.2448 273.071 62.7057 273.071 62.0859V56.5859H273.673V61.9219C273.673 62.7448 273.897 63.3958 274.345 63.875C274.798 64.349 275.42 64.5859 276.212 64.5859C276.634 64.5859 277.017 64.5156 277.361 64.375C277.709 64.2292 278.009 64.0234 278.259 63.7578C278.509 63.4922 278.702 63.1797 278.837 62.8203C278.973 62.4557 279.04 62.0547 279.04 61.6172V56.5859H279.642V65H279.04V63.2578H278.978C278.842 63.6432 278.637 63.9766 278.361 64.2578C278.09 64.5391 277.762 64.7552 277.376 64.9062C276.996 65.0573 276.574 65.1328 276.111 65.1328ZM283.122 65V57.1172H281.724V56.5859H283.122V55.3203C283.122 54.8516 283.201 54.4583 283.357 54.1406C283.513 53.8177 283.74 53.5755 284.036 53.4141C284.339 53.2474 284.706 53.1641 285.138 53.1641C285.273 53.1641 285.398 53.1693 285.513 53.1797C285.628 53.1849 285.742 53.1953 285.857 53.2109V53.7188C285.773 53.7083 285.677 53.7005 285.568 53.6953C285.458 53.6901 285.344 53.6875 285.224 53.6875C284.734 53.6875 284.362 53.8307 284.107 54.1172C283.852 54.3984 283.724 54.8047 283.724 55.3359V56.5859H285.771V57.1172H283.724V65H283.122ZM288.337 65V57.1172H286.939V56.5859H288.337V55.3203C288.337 54.8516 288.416 54.4583 288.572 54.1406C288.728 53.8177 288.955 53.5755 289.251 53.4141C289.554 53.2474 289.921 53.1641 290.353 53.1641C290.488 53.1641 290.613 53.1693 290.728 53.1797C290.843 53.1849 290.957 53.1953 291.072 53.2109V53.7188C290.988 53.7083 290.892 53.7005 290.783 53.6953C290.673 53.6901 290.559 53.6875 290.439 53.6875C289.949 53.6875 289.577 53.8307 289.322 54.1172C289.067 54.3984 288.939 54.8047 288.939 55.3359V56.5859H290.986V57.1172H288.939V65H288.337ZM295.404 65.1328C294.81 65.1328 294.282 65.0443 293.818 64.8672C293.355 64.6901 292.98 64.4375 292.693 64.1094C292.412 63.7812 292.237 63.3906 292.17 62.9375H292.787C292.901 63.4531 293.19 63.8594 293.654 64.1562C294.123 64.4531 294.709 64.6016 295.412 64.6016C295.87 64.6016 296.284 64.526 296.654 64.375C297.024 64.2188 297.318 64.0052 297.537 63.7344C297.761 63.4635 297.873 63.1615 297.873 62.8281V62.8125C297.873 62.3438 297.703 61.9766 297.365 61.7109C297.032 61.4401 296.493 61.2214 295.748 61.0547L294.763 60.8203C294.253 60.7005 293.826 60.5495 293.482 60.3672C293.138 60.1849 292.881 59.9609 292.709 59.6953C292.542 59.4297 292.459 59.1094 292.459 58.7344V58.7188C292.459 58.2812 292.591 57.8932 292.857 57.5547C293.123 57.2109 293.474 56.9427 293.912 56.75C294.355 56.5573 294.839 56.4609 295.365 56.4609C295.896 56.4609 296.373 56.5469 296.795 56.7188C297.216 56.8906 297.563 57.1328 297.834 57.4453C298.105 57.7526 298.274 58.1198 298.341 58.5469H297.748C297.654 58.0781 297.388 57.7005 296.951 57.4141C296.519 57.1276 295.99 56.9844 295.365 56.9844C294.953 56.9844 294.573 57.0599 294.224 57.2109C293.875 57.362 293.594 57.5677 293.381 57.8281C293.172 58.0833 293.068 58.375 293.068 58.7031V58.7188C293.068 58.9948 293.138 59.2318 293.279 59.4297C293.425 59.6276 293.641 59.7969 293.927 59.9375C294.214 60.0781 294.571 60.2005 294.998 60.3047L295.982 60.5312C296.821 60.7292 297.446 60.9974 297.857 61.3359C298.274 61.6745 298.482 62.151 298.482 62.7656V62.7812C298.482 63.2344 298.344 63.638 298.068 63.9922C297.797 64.3464 297.427 64.625 296.959 64.8281C296.495 65.0312 295.977 65.1328 295.404 65.1328ZM301.471 65.0469C301.309 65.0469 301.171 64.9922 301.056 64.8828C300.947 64.7682 300.892 64.6328 300.892 64.4766C300.892 64.3099 300.947 64.1719 301.056 64.0625C301.171 63.9531 301.309 63.8984 301.471 63.8984C301.632 63.8984 301.767 63.9531 301.877 64.0625C301.986 64.1719 302.041 64.3099 302.041 64.4766C302.041 64.6328 301.986 64.7682 301.877 64.8828C301.767 64.9922 301.632 65.0469 301.471 65.0469Z" fill="#EBEBEB"/>
</svg>
