<svg version="1.1" xmlns="http://www.w3.org/2000/svg" xmlns:xlink="http://www.w3.org/1999/xlink" viewBox="0 0 231.654 224.692" width="35" height="35" >
 <g>
  <rect height="224.692" opacity="0" width="231.654" x="0" y="0"/>
  <path d="M152.904 47.8357L62.8078 47.8357C53.3126 47.8357 48.1681 52.7942 48.1681 62.6687L48.1681 168.394C48.1681 178.268 53.3126 183.227 62.8078 183.227L168.846 183.227C178.342 183.227 183.486 178.268 183.486 168.394L183.486 79.0228L199.574 62.9134L199.574 169.759C199.574 189.234 189.373 199.315 169.765 199.315L61.8893 199.315C42.281 199.315 32.0666 189.234 32.0666 169.759L32.0666 61.3636C32.0666 41.8753 42.281 31.7474 61.8893 31.7474L168.983 31.7474Z" fill="#000" fill-opacity="0.85"/>
  <path d="M98.5837 135.927L116.538 128.185L203.106 41.6174L189.997 28.5819L103.503 115.15L95.3742 132.644C94.4968 134.511 96.6896 136.705 98.5837 135.927ZM210.022 34.8089L216.341 28.3093C219.786 24.804 219.912 20.1297 216.553 16.8104L214.393 14.6629C211.346 11.6556 206.525 12.1141 203.239 15.3997L196.913 21.6663Z" fill="#000" fill-opacity="0.85"/>
 </g>
</svg>
