<svg width="262" height="261" viewBox="0 0 262 261" fill="none" xmlns="http://www.w3.org/2000/svg">
<path d="M131.5 9.49978e-05L145.14 0.731216L158.629 2.88412L171.819 6.4352L184.566 11.3456L196.729 17.5614L208.176 25.0146L218.782 33.6236L228.429 43.2939L237.013 53.9197L244.439 65.3845L250.626 77.5628L255.506 90.321L259.025 103.519L261.146 117.013L261.845 130.655L261.114 144.295L258.961 157.784L255.41 170.974L250.499 183.721L244.283 195.884L236.83 207.332L228.221 217.937L218.551 227.584L207.925 236.168L196.46 243.594L184.282 249.781L171.524 254.661L158.325 258.18L144.831 260.301L131.19 261L117.549 260.269L104.06 258.116L90.8704 254.565L78.1238 249.654L65.9604 243.439L54.5132 235.985L43.9079 227.376L34.2606 217.706L25.6769 207.08L18.2509 195.615L12.064 183.437L7.18402 170.679L3.66434 157.481L1.54355 143.987L0.844891 130.345L1.57601 116.705L3.72891 103.216L7.28 90.0256L12.1904 77.279L18.4062 65.1156L25.8594 53.6684L34.4684 43.0631L44.1387 33.4158L54.7645 24.8321L66.2293 17.4061L78.4076 11.2192L91.1658 6.33923L104.364 2.81954L117.858 0.698752L131.5 9.49978e-05Z" fill="#F5F1B1" style="mix-blend-mode:difference"/>
</svg>
