<svg xmlns="http://www.w3.org/2000/svg" xmlns:xlink="http://www.w3.org/1999/xlink" width="26.93" height="25.271" version="1.1"><g><rect width="26.93" height="25.271" x="0" y="0" opacity="0"/><path fill="#000" fill-opacity=".85" d="M3.32722 8.43156C3.64949 8.49015 3.99129 8.29484 4.04988 7.95304C4.11824 7.62101 3.91316 7.30851 3.57136 7.23038L0.749099 6.62491C0.38777 6.54679 0.0557392 6.78116 0.00691112 7.13273C-0.041917 7.45499 0.172927 7.76749 0.495192 7.83585ZM4.31355 5.1796C4.55769 5.42374 4.95808 5.42374 5.19246 5.1796C5.42683 4.93546 5.4366 4.5546 5.19246 4.31046L3.14168 2.26945C2.88777 2.01554 2.51668 2.02531 2.27254 2.26945C2.0284 2.51359 2.01863 2.88468 2.27254 3.13859ZM7.95613 4.21281C8.28816 4.14445 8.52254 3.80265 8.44441 3.49015L7.83894 0.667883C7.76082 0.326087 7.42879 0.121008 7.10652 0.189368C6.77449 0.257727 6.54011 0.579993 6.61824 0.92179L7.22371 3.73429C7.30183 4.05656 7.61433 4.29093 7.95613 4.21281Z"/><path fill="#000" fill-opacity=".85" d="M15.1827 21.7226C18.2296 24.7597 22.0284 24.5644 24.7628 21.8398C26.96 19.6327 27.3995 17.3476 26.4718 14.5937C25.9737 13.0507 25.1632 11.4198 24.1573 9.5546C23.7667 8.79288 23.2784 7.79679 22.9464 7.47452C22.5753 7.10343 22.0675 7.12296 21.6671 7.51359C21.2276 7.95304 21.2471 8.48038 21.5792 9.45695L22.6436 12.4355C22.7608 12.748 22.7413 12.9433 22.6241 13.0605C22.4874 13.1972 22.3018 13.2167 22.0577 12.9726L14.8214 5.72648C14.4112 5.32609 13.7374 5.32609 13.337 5.72648C12.9268 6.13663 12.9268 6.8007 13.337 7.21085L18.5128 12.3866C18.2686 12.5038 17.9952 12.6601 17.7315 12.8359L11.7257 6.82999C11.3253 6.41984 10.6514 6.41984 10.2413 6.82999C9.8409 7.24015 9.8409 7.90421 10.2413 8.31437L16.1788 14.2421C15.9737 14.4765 15.7882 14.7304 15.6124 14.9745L10.1827 9.54484C9.77254 9.13468 9.10847 9.13468 8.69832 9.54484C8.29793 9.95499 8.29793 10.6191 8.69832 11.0292L14.6065 16.9276C14.4796 17.2597 14.4014 17.5917 14.3331 17.9042L10.2315 13.8026C9.83113 13.3925 9.1573 13.3925 8.74715 13.8026C8.34675 14.2128 8.34675 14.8671 8.74715 15.2773Z"/><path fill="#fff" d="M10.7686 22.6601C14.3526 26.2343 18.9913 26.0097 22.2335 22.7773C24.8018 20.1991 25.3292 17.4062 24.2745 14.2226C23.7471 12.5624 22.8878 10.8144 21.8721 8.93937C21.4034 8.03116 20.9053 7.01554 20.4073 6.52726C19.5089 5.62882 18.1612 5.67765 17.2628 6.56632C16.7061 7.12296 16.462 7.78702 16.5792 8.74406L16.8428 9.33976L12.2823 4.77921C11.3546 3.86124 9.85066 3.87101 8.92293 4.77921C8.72761 4.98429 8.57136 5.2089 8.47371 5.4921L8.28816 5.35538C7.47761 5.03312 6.48152 5.21866 5.82722 5.89249C5.28035 6.44913 5.05574 7.22062 5.24129 7.89445L5.29988 8.06046C4.93855 8.13859 4.57722 8.32413 4.28425 8.60734C3.36629 9.53507 3.36629 11.039 4.28425 11.9667L4.85066 12.5331C4.67488 12.5917 4.48933 12.7089 4.33308 12.8651C3.42488 13.7831 3.42488 15.287 4.33308 16.2148Z"/><path fill="#000" fill-opacity=".85" d="M11.7159 21.7226C14.7628 24.7597 18.5616 24.5644 21.296 21.8398C23.4932 19.6327 23.9327 17.3476 23.005 14.5937C22.5069 13.0507 21.6866 11.4198 20.6905 9.5546C20.2901 8.79288 19.8116 7.79679 19.4796 7.47452C19.1085 7.10343 18.5909 7.12296 18.2003 7.51359C17.7608 7.95304 17.7803 8.48038 18.1124 9.45695L19.1671 12.4355C19.294 12.748 19.2745 12.9433 19.1573 13.0605C19.0206 13.1972 18.835 13.2167 18.5811 12.9726L11.3546 5.72648C10.9444 5.32609 10.2706 5.32609 9.87019 5.72648C9.46004 6.13663 9.46004 6.8007 9.87019 7.21085L15.046 12.3866C14.7921 12.5038 14.5284 12.6601 14.2647 12.8359L8.25886 6.82999C7.85847 6.41984 7.18465 6.41984 6.77449 6.82999C6.3741 7.24015 6.3741 7.90421 6.77449 8.31437L12.7022 14.2421C12.5069 14.4765 12.3214 14.7304 12.1456 14.9745L6.7159 9.54484C6.30574 9.13468 5.64168 9.13468 5.23152 9.54484C4.83113 9.95499 4.83113 10.6191 5.23152 11.0292L11.13 16.9276C11.0128 17.2597 10.9346 17.5917 10.8663 17.9042L6.76472 13.8026C6.36433 13.3925 5.6905 13.3925 5.28035 13.8026C4.87996 14.2128 4.87996 14.8671 5.28035 15.2773Z"/></g></svg>